<svg data-v-423bf9ae="" xmlns="http://www.w3.org/2000/svg" viewBox="0 0 506.3384540264423 60" class="font"><!----><!----><!----><g data-v-423bf9ae="" id="f224db33-70bb-4446-b848-878c5e55f895" fill="white" transform="matrix(6.153846153846154,0,0,6.153846153846154,-5.661543759015899,-6.584615349769592)"><path d="M11.21 9.89L11.21 9.89L11.21 9.89Q10.72 10.10 10.24 10.27L10.24 10.27L10.24 10.27Q9.75 10.44 9.24 10.56L9.24 10.56L9.24 10.56Q8.72 10.68 8.14 10.75L8.14 10.75L8.14 10.75Q7.57 10.82 6.89 10.82L6.89 10.82L6.89 10.82Q6.06 10.82 5.29 10.68L5.29 10.68L5.29 10.68Q4.52 10.55 3.86 10.27L3.86 10.27L3.86 10.27Q3.19 10.00 2.65 9.59L2.65 9.59L2.65 9.59Q2.11 9.19 1.73 8.65L1.73 8.65L1.73 8.65Q1.34 8.11 1.13 7.43L1.13 7.43L1.13 7.43Q0.92 6.75 0.92 5.95L0.92 5.95L0.92 5.95Q0.92 5.14 1.13 4.46L1.13 4.46L1.13 4.46Q1.34 3.79 1.73 3.25L1.73 3.25L1.73 3.25Q2.11 2.71 2.65 2.30L2.65 2.30L2.65 2.30Q3.19 1.89 3.86 1.62L3.86 1.62L3.86 1.62Q4.52 1.35 5.28 1.21L5.28 1.21L5.28 1.21Q6.05 1.07 6.89 1.07L6.89 1.07L6.89 1.07Q7.57 1.07 8.14 1.14L8.14 1.14L8.14 1.14Q8.72 1.21 9.24 1.33L9.24 1.33L9.24 1.33Q9.75 1.46 10.24 1.62L10.24 1.62L10.24 1.62Q10.72 1.79 11.21 2.00L11.21 2.00L11.21 3.02L11.21 3.02Q10.82 2.78 10.38 2.56L10.38 2.56L10.38 2.56Q9.93 2.34 9.42 2.17L9.42 2.17L9.42 2.17Q8.90 2.01 8.31 1.91L8.31 1.91L8.31 1.91Q7.72 1.82 7.05 1.82L7.05 1.82L7.05 1.82Q5.70 1.82 4.71 2.11L4.71 2.11L4.71 2.11Q3.72 2.41 3.07 2.94L3.07 2.94L3.07 2.94Q2.43 3.48 2.12 4.24L2.12 4.24L2.12 4.24Q1.80 5.00 1.80 5.95L1.80 5.95L1.80 5.95Q1.80 6.89 2.12 7.65L2.12 7.65L2.12 7.65Q2.43 8.41 3.07 8.94L3.07 8.94L3.07 8.94Q3.72 9.48 4.71 9.77L4.71 9.77L4.71 9.77Q5.70 10.06 7.05 10.06L7.05 10.06L7.05 10.06Q7.72 10.06 8.32 9.97L8.32 9.97L8.32 9.97Q8.92 9.87 9.44 9.71L9.44 9.71L9.44 9.71Q9.97 9.54 10.41 9.33L10.41 9.33L10.41 9.33Q10.85 9.11 11.21 8.87L11.21 8.87L11.21 9.89ZM23.34 1.24L23.34 7.21L23.34 7.21Q23.34 8.13 22.91 8.80L22.91 8.80L22.91 8.80Q22.48 9.47 21.72 9.92L21.72 9.92L21.72 9.92Q20.97 10.36 19.94 10.58L19.94 10.58L19.94 10.58Q18.91 10.79 17.71 10.79L17.71 10.79L17.71 10.79Q16.41 10.79 15.33 10.63L15.33 10.63L15.33 10.63Q14.24 10.46 13.43 10.16L13.43 10.16L13.43 9.17L13.43 9.17Q13.86 9.35 14.33 9.51L14.33 9.51L14.33 9.51Q14.79 9.67 15.32 9.79L15.32 9.79L15.32 9.79Q15.85 9.91 16.44 9.97L16.44 9.97L16.44 9.97Q17.04 10.04 17.74 10.04L17.74 10.04L17.74 10.04Q18.72 10.04 19.58 9.85L19.58 9.85L19.58 9.85Q20.45 9.66 21.09 9.30L21.09 9.30L21.09 9.30Q21.72 8.94 22.10 8.42L22.10 8.42L22.10 8.42Q22.47 7.89 22.47 7.21L22.47 7.21L22.47 5.43L22.47 5.43Q22.14 5.87 21.67 6.28L21.67 6.28L21.67 6.28Q21.19 6.69 20.61 7.00L20.61 7.00L20.61 7.00Q20.02 7.31 19.34 7.50L19.34 7.50L19.34 7.50Q18.66 7.68 17.90 7.68L17.90 7.68L17.90 7.68Q17.04 7.68 16.37 7.52L16.37 7.52L16.37 7.52Q15.70 7.36 15.21 7.08L15.21 7.08L15.21 7.08Q14.71 6.80 14.37 6.42L14.37 6.42L14.37 6.42Q14.03 6.03 13.82 5.57L13.82 5.57L13.82 5.57Q13.61 5.12 13.52 4.62L13.52 4.62L13.52 4.62Q13.43 4.12 13.43 3.61L13.43 3.61L13.43 1.24L14.29 1.24L14.29 3.42L14.29 3.42Q14.29 4.21 14.48 4.85L14.48 4.85L14.48 4.85Q14.67 5.50 15.10 5.95L15.10 5.95L15.10 5.95Q15.53 6.41 16.23 6.66L16.23 6.66L16.23 6.66Q16.93 6.91 17.96 6.91L17.96 6.91L17.96 6.91Q18.76 6.91 19.43 6.70L19.43 6.70L19.43 6.70Q20.10 6.48 20.66 6.11L20.66 6.11L20.66 6.11Q21.21 5.75 21.66 5.27L21.66 5.27L21.66 5.27Q22.11 4.79 22.47 4.27L22.47 4.27L22.47 1.24L23.34 1.24ZM36.13 9.89L36.13 9.89L36.13 9.89Q35.64 10.10 35.16 10.27L35.16 10.27L35.16 10.27Q34.68 10.44 34.16 10.56L34.16 10.56L34.16 10.56Q33.64 10.68 33.07 10.75L33.07 10.75L33.07 10.75Q32.49 10.82 31.81 10.82L31.81 10.82L31.81 10.82Q30.98 10.82 30.21 10.68L30.21 10.68L30.21 10.68Q29.44 10.55 28.78 10.27L28.78 10.27L28.78 10.27Q28.12 10.00 27.58 9.59L27.58 9.59L27.58 9.59Q27.04 9.19 26.65 8.65L26.65 8.65L26.65 8.65Q26.26 8.11 26.06 7.43L26.06 7.43L26.06 7.43Q25.85 6.75 25.85 5.95L25.85 5.95L25.85 5.95Q25.85 5.14 26.06 4.46L26.06 4.46L26.06 4.46Q26.26 3.79 26.65 3.25L26.65 3.25L26.65 3.25Q27.04 2.71 27.58 2.30L27.58 2.30L27.58 2.30Q28.12 1.89 28.78 1.62L28.78 1.62L28.78 1.62Q29.44 1.35 30.21 1.21L30.21 1.21L30.21 1.21Q30.97 1.07 31.81 1.07L31.81 1.07L31.81 1.07Q32.49 1.07 33.07 1.14L33.07 1.14L33.07 1.14Q33.64 1.21 34.16 1.33L34.16 1.33L34.16 1.33Q34.68 1.46 35.16 1.62L35.16 1.62L35.16 1.62Q35.64 1.79 36.13 2.00L36.13 2.00L36.13 3.02L36.13 3.02Q35.75 2.78 35.30 2.56L35.30 2.56L35.30 2.56Q34.86 2.34 34.34 2.17L34.34 2.17L34.34 2.17Q33.82 2.01 33.24 1.91L33.24 1.91L33.24 1.91Q32.65 1.82 31.98 1.82L31.98 1.82L31.98 1.82Q30.63 1.82 29.63 2.11L29.63 2.11L29.63 2.11Q28.64 2.41 28.00 2.94L28.00 2.94L28.00 2.94Q27.35 3.48 27.04 4.24L27.04 4.24L27.04 4.24Q26.73 5.00 26.73 5.95L26.73 5.95L26.73 5.95Q26.73 6.89 27.04 7.65L27.04 7.65L27.04 7.65Q27.35 8.41 28.00 8.94L28.00 8.94L28.00 8.94Q28.64 9.48 29.63 9.77L29.63 9.77L29.63 9.77Q30.63 10.06 31.98 10.06L31.98 10.06L31.98 10.06Q32.65 10.06 33.25 9.97L33.25 9.97L33.25 9.97Q33.84 9.87 34.37 9.71L34.37 9.71L34.37 9.71Q34.89 9.54 35.33 9.33L35.33 9.33L35.33 9.33Q35.77 9.11 36.13 8.87L36.13 8.87L36.13 9.89ZM39.53 1.24L39.53 7.39L39.53 7.39Q39.53 8.03 39.63 8.48L39.63 8.48L39.63 8.48Q39.73 8.94 40.06 9.24L40.06 9.24L40.06 9.24Q40.39 9.53 41.01 9.67L41.01 9.67L41.01 9.67Q41.62 9.81 42.65 9.81L42.65 9.81L46.89 9.81L46.89 10.64L42.48 10.64L42.48 10.64Q41.35 10.64 40.62 10.46L40.62 10.46L40.62 10.46Q39.88 10.27 39.45 9.90L39.45 9.90L39.45 9.90Q39.01 9.52 38.84 8.93L38.84 8.93L38.84 8.93Q38.67 8.35 38.67 7.55L38.67 7.55L38.67 1.24L39.53 1.24ZM59.88 5.95L59.88 5.95L59.88 5.95Q59.88 7.21 59.42 8.13L59.42 8.13L59.42 8.13Q58.97 9.05 58.17 9.65L58.17 9.65L58.17 9.65Q57.37 10.25 56.28 10.53L56.28 10.53L56.28 10.53Q55.19 10.82 53.94 10.82L53.94 10.82L53.94 10.82Q52.67 10.82 51.58 10.53L51.58 10.53L51.58 10.53Q50.48 10.25 49.68 9.65L49.68 9.65L49.68 9.65Q48.87 9.05 48.41 8.13L48.41 8.13L48.41 8.13Q47.95 7.21 47.95 5.95L47.95 5.95L47.95 5.95Q47.95 5.11 48.17 4.42L48.17 4.42L48.17 4.42Q48.38 3.73 48.76 3.19L48.76 3.19L48.76 3.19Q49.14 2.65 49.69 2.25L49.69 2.25L49.69 2.25Q50.23 1.85 50.90 1.59L50.90 1.59L50.90 1.59Q51.56 1.33 52.33 1.20L52.33 1.20L52.33 1.20Q53.09 1.07 53.94 1.07L53.94 1.07L53.94 1.07Q55.19 1.07 56.28 1.36L56.28 1.36L56.28 1.36Q57.37 1.65 58.17 2.25L58.17 2.25L58.17 2.25Q58.97 2.84 59.42 3.76L59.42 3.76L59.42 3.76Q59.88 4.68 59.88 5.95ZM59.00 5.95L59.00 5.95L59.00 5.95Q59.00 4.95 58.68 4.18L58.68 4.18L58.68 4.18Q58.35 3.42 57.72 2.90L57.72 2.90L57.72 2.90Q57.08 2.37 56.13 2.10L56.13 2.10L56.13 2.10Q55.19 1.83 53.94 1.83L53.94 1.83L53.94 1.83Q52.68 1.83 51.73 2.11L51.73 2.11L51.73 2.11Q50.78 2.38 50.13 2.90L50.13 2.90L50.13 2.90Q49.49 3.42 49.16 4.19L49.16 4.19L49.16 4.19Q48.84 4.96 48.84 5.95L48.84 5.95L48.84 5.95Q48.84 6.95 49.16 7.71L49.16 7.71L49.16 7.71Q49.49 8.48 50.13 9.00L50.13 9.00L50.13 9.00Q50.78 9.52 51.73 9.79L51.73 9.79L51.73 9.79Q52.68 10.06 53.94 10.06L53.94 10.06L53.94 10.06Q55.19 10.06 56.13 9.79L56.13 9.79L56.13 9.79Q57.08 9.52 57.72 9.00L57.72 9.00L57.72 9.00Q58.35 8.48 58.68 7.71L58.68 7.71L58.68 7.71Q59.00 6.95 59.00 5.95ZM70.62 10.64L66.56 6.39L62.51 10.64L61.43 10.64L66.03 5.82L61.66 1.24L62.74 1.24L66.56 5.26L70.40 1.24L71.48 1.24L67.11 5.82L71.70 10.64L70.62 10.64ZM82.13 10.64L78.07 6.39L74.02 10.64L72.94 10.64L77.53 5.82L73.17 1.24L74.25 1.24L78.07 5.26L81.90 1.24L82.98 1.24L78.61 5.82L83.20 10.64L82.13 10.64Z"></path></g><!----><!----></svg>